<svg width="161" height="67" viewBox="0 0 161 67" fill="none" xmlns="http://www.w3.org/2000/svg">
<path fill-rule="evenodd" clip-rule="evenodd" d="M49.031 24.783C52.682 28.757 60.647 25.158 58.062 19.861C56.336 16.305 53.75 17.13 51.904 18.041C48.208 19.82 47.509 23.088 49.031 24.783ZM43.105 22.002C45.481 26.868 38.168 30.173 34.813 26.523C33.415 24.968 34.058 21.963 37.449 20.33C39.146 19.494 41.522 18.734 43.105 22.002ZM158.936 50.374C157.715 50.5332 156.442 50.6425 155.221 50.7474L155.179 50.751V50.807C152.764 68.171 128.991 71.038 128.4 57.406C128.131 51.239 139.993 49.456 151.798 48.318C152.007 42.9112 148.233 44.1234 143.648 45.5959C138.829 47.1437 133.115 48.979 130.19 43.717C125.171 34.692 144.822 25.779 146.918 27.615C153.271 33.1766 150.4 34.2063 145.727 35.8824L145.539 35.95C136.049 39.36 139.748 40.057 141.028 39.676C148.597 37.423 155.394 38.636 155.34 47.993C155.955 47.9419 156.558 47.9024 157.154 47.8634C157.807 47.8207 158.452 47.7784 159.097 47.722C161.403 47.507 161.564 50.157 158.936 50.374ZM151.422 51.13C142.298 52.158 134.409 53.566 135.269 56.485C136.985 62.058 148.846 63.303 151.422 51.13ZM118.79 34.23C117.975 39.88 117.996 45.881 118.678 45.918C119.012 45.937 120.982 45.572 121.617 44.411C122.226 43.2934 122.794 41.7543 123.388 40.141L123.388 40.1409L123.388 40.1409L123.388 40.1408L123.388 40.1407L123.388 40.1406L123.388 40.1405C124.586 36.8907 125.895 33.3397 127.883 32.324C130.725 30.873 119.795 27.279 118.79 34.23ZM31.0464 61.507C23.5777 67.4588 17.2039 66.7854 18.0091 51.6662C18.5859 40.6814 16.1464 40.2574 14.1449 42.5029C11.5237 45.418 10.3061 52.5637 10.7831 59.2359C11.1685 60.8173 11.6295 62.3794 12.1643 63.9167C12.6271 65.515 7.53698 67.6121 4.2962 65.5597C3.17903 64.8615 1.71342 57.0283 0.858382 46.3284C0.155493 37.5325 0.839177 31.3875 1.87251 31.024C9.70147 28.2004 11.2623 31.626 10.0672 38.3756C9.5886 41.0194 9.33457 43.699 9.30778 46.3856C10.6039 41.6031 12.69 37.6033 15.2788 35.703C22.2997 30.4631 28.6436 32.1541 28.2151 41.4919C27.5351 58.1791 27.5477 60.4323 29.2231 59.0023C31.3216 57.2556 32.99 59.9432 31.0464 61.507ZM42.766 65.142C48.176 65.761 53.807 64.074 55.982 60.59C57.821 57.667 56.316 56.655 54.197 59.015C49.737 64.131 45.109 61.826 43.158 56.655L43.66 56.487C53.082 52.721 58.992 42.493 55.257 36.704C50.126 28.723 34.069 35.86 32.061 47.045C30.221 57.386 35.016 64.299 42.766 65.142ZM42.377 53.172C48.232 49.013 50.183 39.852 48.566 37.267C46.838 34.57 43.492 38.784 42.321 49.013C42.21 50.474 42.21 51.878 42.377 53.172ZM78.125 51.051C80.188 50.376 82.494 48.499 84.091 45.992C84.538 45.289 84.914 44.657 85.43 43.012C85.3675 43.2111 85.3915 43.1204 85.4509 42.8953C85.5588 42.4862 85.7839 41.6335 85.82 41.271C85.82 41.215 85.876 40.932 85.932 40.822C87.157 33.965 82.921 30.086 77.065 33.009C73.776 34.638 69.706 40.822 67.253 47.51C67.866 43.912 68.925 40.484 70.096 37.111C72.103 31.154 68.368 28.119 61.956 29.862C60.896 30.143 58.945 37.955 58.945 46.779C58.945 57.513 59.503 63.695 60.562 64.483C63.628 66.843 69.092 65.101 68.535 63.527C68.3189 62.929 68.1553 62.3282 67.9925 61.7301L67.977 61.673C67.977 61.504 67.977 61.335 67.922 61.167C66.861 54.196 70.933 44.532 74.278 41.946C75.17 41.215 76.396 41.721 76.564 43.632C73.832 44.981 72.94 47.342 72.94 48.353C72.94 51.107 75.727 51.781 78.125 51.051Z" fill="black"/>
<path fill-rule="evenodd" clip-rule="evenodd" d="M114.207 27.161C113.726 29.6539 113.354 32.1666 113.092 34.692C112.033 44.752 112.48 53.688 113.705 57.678C114.431 59.815 117.162 62.624 119.783 59.701C122.626 56.498 125.75 58.352 121.957 62.117C119.617 64.422 115.268 65.995 110.918 65.545C107.795 65.152 105.9 63.13 104.784 60.04C104.34 60.938 103.837 61.725 103.224 62.342C101.105 64.535 98.539 65.772 95.25 65.434C88.613 64.704 84.712 57.511 86.551 47.281C88.503 36.49 97.87 32.556 103.279 35.424C103.391 34.075 103.502 32.725 103.614 31.32C103.641 31.1795 103.655 31.039 103.669 30.8985C103.683 30.758 103.696 30.6175 103.724 30.477C102.079 30.8387 100.424 31.1575 98.762 31.433C74.787 35.423 83.04 15.864 88.894 10.75C95.53 5.017 96.254 8.895 94.191 10.188C90.511 12.548 88.894 26.093 99.432 26.093C101.161 26.093 102.778 25.981 104.394 25.812C107.685 7.49 117.665 -1.391 125.75 1.532C134.726 4.792 133.779 19.067 114.207 27.161ZM103.279 51.554C103.055 48.012 103.055 44.022 103.112 39.918C103.112 39.6576 103.127 39.3974 103.141 39.1449C103.155 38.9068 103.168 38.6754 103.168 38.457C99.822 36.939 96.533 42.11 95.695 49.249C94.749 57.622 98.483 62.062 100.603 60.04C102.22 58.409 103.056 53.237 103.279 51.554ZM127.365 8.389C125.581 5.747 119.058 8.951 115.267 22.721C124.802 18.167 128.593 10.299 127.365 8.389Z" fill="black"/>
</svg>
